<svg width="33" height="27" viewBox="0 0 33 27" fill="none" xmlns="http://www.w3.org/2000/svg">
<g clip-path="url(#clip0_69_1276)">
<rect width="33" height="20" rx="4" fill="#0C96E1"/>
<path d="M9.08239 14.0994C8.5947 14.0994 8.16383 14.013 7.78977 13.8402C7.41809 13.665 7.12808 13.4247 6.91974 13.1193C6.71141 12.8116 6.60843 12.4612 6.6108 12.0682C6.60843 11.7604 6.6688 11.4763 6.7919 11.2159C6.91501 10.9531 7.0831 10.7341 7.29616 10.5589C7.5116 10.3814 7.75189 10.2689 8.01705 10.2216V10.179C7.66903 10.089 7.39205 9.8937 7.18608 9.59304C6.98011 9.29001 6.87831 8.94555 6.88068 8.55966C6.87831 8.19034 6.97183 7.86009 7.16122 7.56889C7.35062 7.2777 7.61103 7.04806 7.94247 6.87997C8.27628 6.71188 8.65625 6.62784 9.08239 6.62784C9.50379 6.62784 9.88021 6.71188 10.2116 6.87997C10.5431 7.04806 10.8035 7.2777 10.9929 7.56889C11.1847 7.86009 11.2817 8.19034 11.2841 8.55966C11.2817 8.94555 11.1764 9.29001 10.968 9.59304C10.7621 9.8937 10.4886 10.089 10.1477 10.179V10.2216C10.4105 10.2689 10.6473 10.3814 10.858 10.5589C11.0687 10.7341 11.2367 10.9531 11.3622 11.2159C11.4877 11.4763 11.5516 11.7604 11.554 12.0682C11.5516 12.4612 11.4451 12.8116 11.2344 13.1193C11.026 13.4247 10.736 13.665 10.3643 13.8402C9.99503 14.013 9.56771 14.0994 9.08239 14.0994ZM9.08239 13.3182C9.41146 13.3182 9.69555 13.2649 9.93466 13.1584C10.1738 13.0518 10.3584 12.9015 10.4886 12.7074C10.6188 12.5133 10.6851 12.286 10.6875 12.0256C10.6851 11.7509 10.6141 11.5083 10.4744 11.2976C10.3348 11.0869 10.1442 10.9212 9.9027 10.8004C9.66359 10.6797 9.39015 10.6193 9.08239 10.6193C8.77225 10.6193 8.49527 10.6797 8.25142 10.8004C8.00994 10.9212 7.81937 11.0869 7.67969 11.2976C7.54238 11.5083 7.47491 11.7509 7.47727 12.0256C7.47491 12.286 7.53764 12.5133 7.66548 12.7074C7.79569 12.9015 7.98153 13.0518 8.22301 13.1584C8.46449 13.2649 8.75095 13.3182 9.08239 13.3182ZM9.08239 9.86648C9.3428 9.86648 9.57363 9.81439 9.77486 9.71023C9.97846 9.60606 10.1383 9.46046 10.2543 9.27344C10.3703 9.08641 10.4295 8.86742 10.4318 8.61648C10.4295 8.37026 10.3714 8.15601 10.2578 7.97372C10.1442 7.78906 9.98674 7.64702 9.78551 7.54759C9.58428 7.44579 9.34991 7.39489 9.08239 7.39489C8.81013 7.39489 8.57221 7.44579 8.36861 7.54759C8.16501 7.64702 8.00758 7.78906 7.89631 7.97372C7.78504 8.15601 7.73059 8.37026 7.73295 8.61648C7.73059 8.86742 7.78622 9.08641 7.89986 9.27344C8.01586 9.46046 8.17566 9.60606 8.37926 9.71023C8.58286 9.81439 8.81723 9.86648 9.08239 9.86648ZM15.2871 14.0994C14.7521 14.0994 14.2963 13.9538 13.9199 13.6626C13.5435 13.3691 13.2559 12.9441 13.057 12.3878C12.8581 11.8291 12.7587 11.1544 12.7587 10.3636C12.7587 9.57765 12.8581 8.90649 13.057 8.35014C13.2582 7.79143 13.5471 7.36529 13.9235 7.07173C14.3023 6.7758 14.7568 6.62784 15.2871 6.62784C15.8174 6.62784 16.2708 6.7758 16.6472 7.07173C17.026 7.36529 17.3148 7.79143 17.5137 8.35014C17.7149 8.90649 17.8155 9.57765 17.8155 10.3636C17.8155 11.1544 17.7161 11.8291 17.5172 12.3878C17.3184 12.9441 17.0307 13.3691 16.6543 13.6626C16.2779 13.9538 15.8221 14.0994 15.2871 14.0994ZM15.2871 13.3182C15.8174 13.3182 16.2293 13.0625 16.5229 12.5511C16.8165 12.0398 16.9632 11.3106 16.9632 10.3636C16.9632 9.7339 16.8958 9.19768 16.7608 8.75497C16.6283 8.31226 16.4365 7.97491 16.1855 7.7429C15.937 7.51089 15.6375 7.39489 15.2871 7.39489C14.7615 7.39489 14.3508 7.65412 14.0549 8.17259C13.7589 8.68868 13.611 9.41903 13.611 10.3636C13.611 10.9934 13.6773 11.5284 13.8098 11.9688C13.9424 12.4091 14.133 12.7441 14.3816 12.9737C14.6325 13.2034 14.9344 13.3182 15.2871 13.3182ZM22.8723 12.6364V12.2528C22.8723 11.9877 22.9268 11.745 23.0357 11.5249C23.147 11.3023 23.3079 11.1248 23.5186 10.9922C23.7317 10.8572 23.9898 10.7898 24.2928 10.7898C24.6006 10.7898 24.8586 10.8572 25.0669 10.9922C25.2753 11.1248 25.4327 11.3023 25.5392 11.5249C25.6458 11.745 25.699 11.9877 25.699 12.2528V12.6364C25.699 12.9015 25.6446 13.1454 25.5357 13.3679C25.4292 13.5881 25.2705 13.7656 25.0598 13.9006C24.8515 14.0331 24.5958 14.0994 24.2928 14.0994C23.985 14.0994 23.7258 14.0331 23.5151 13.9006C23.3044 13.7656 23.1446 13.5881 23.0357 13.3679C22.9268 13.1454 22.8723 12.9015 22.8723 12.6364ZM23.5968 12.2528V12.6364C23.5968 12.8565 23.6489 13.0542 23.753 13.2294C23.8572 13.4022 24.0371 13.4886 24.2928 13.4886C24.5414 13.4886 24.7166 13.4022 24.8184 13.2294C24.9225 13.0542 24.9746 12.8565 24.9746 12.6364V12.2528C24.9746 12.0327 24.9249 11.8362 24.8255 11.6634C24.726 11.4882 24.5485 11.4006 24.2928 11.4006C24.0442 11.4006 23.8655 11.4882 23.7566 11.6634C23.65 11.8362 23.5968 12.0327 23.5968 12.2528ZM19.2502 8.47443V8.09091C19.2502 7.82576 19.3046 7.5831 19.4135 7.36293C19.5248 7.14039 19.6858 6.96283 19.8965 6.83026C20.1096 6.69531 20.3676 6.62784 20.6706 6.62784C20.9784 6.62784 21.2364 6.69531 21.4448 6.83026C21.6531 6.96283 21.8105 7.14039 21.9171 7.36293C22.0236 7.5831 22.0769 7.82576 22.0769 8.09091V8.47443C22.0769 8.73958 22.0224 8.98343 21.9135 9.20597C21.807 9.42614 21.6484 9.60369 21.4377 9.73864C21.2293 9.87121 20.9737 9.9375 20.6706 9.9375C20.3629 9.9375 20.1036 9.87121 19.8929 9.73864C19.6822 9.60369 19.5224 9.42614 19.4135 9.20597C19.3046 8.98343 19.2502 8.73958 19.2502 8.47443ZM19.9746 8.09091V8.47443C19.9746 8.6946 20.0267 8.89228 20.1309 9.06747C20.235 9.24029 20.415 9.3267 20.6706 9.3267C20.9192 9.3267 21.0944 9.24029 21.1962 9.06747C21.3004 8.89228 21.3525 8.6946 21.3525 8.47443V8.09091C21.3525 7.87074 21.3027 7.67424 21.2033 7.50142C21.1039 7.32623 20.9263 7.23864 20.6706 7.23864C20.4221 7.23864 20.2433 7.32623 20.1344 7.50142C20.0279 7.67424 19.9746 7.87074 19.9746 8.09091ZM19.5201 14L24.5201 6.72727H25.3297L20.3297 14H19.5201Z" fill="white"/>
<path d="M17.366 25.5C16.9811 26.1667 16.0189 26.1667 15.634 25.5L12.1699 19.5C11.785 18.8333 12.2661 18 13.0359 18H19.9641C20.7339 18 21.215 18.8333 20.8301 19.5L17.366 25.5Z" fill="#0C96E1"/>
</g>
<defs>
<clipPath id="clip0_69_1276">
<rect width="33" height="27" fill="white"/>
</clipPath>
</defs>
</svg>
